<svg width="280.84999999999997px" height="177.2px" xmlns="http://www.w3.org/2000/svg"
     viewBox="109.57500000000002 -13.599999999999994 280.84999999999997 177.2" style="background: rgba(0, 0, 0, 0);"
     preserveAspectRatio="xMidYMid">
    <defs>
        <filter id="editing-hole" x="-100%" y="-100%" width="300%" height="300%">
            <feFlood flood-color="#000" result="black"></feFlood>
            <feMorphology operator="dilate" radius="2" in="SourceGraphic" result="erode"></feMorphology>
            <feGaussianBlur in="erode" stdDeviation="4" result="blur"></feGaussianBlur>
            <feOffset in="blur" dx="2" dy="2" result="offset"></feOffset>
            <feComposite operator="atop" in="offset" in2="black" result="merge"></feComposite>
            <feComposite operator="in" in="merge" in2="SourceGraphic" result="inner-shadow"></feComposite>
        </filter>
    </defs>
    <g filter="url(#editing-hole)">
        <g transform="translate(152.46500396728516, 95.38500022888184)">
            <path d="M11.78-3.26L28.10-3.26L28.10 0L5.25 0L5.25-39.23L26.94-39.23L26.94-35.97L11.78-35.97L11.78-21.70L25.60-21.70L25.60-18.30L11.78-18.30L11.78-3.26ZM58.94-39.23L62.91-39.23L50.75 0L43.14 0L30.91-39.23L37.44-39.23L48.19-2.94L58.94-39.23ZM75.39-3.26L91.71-3.26L91.71 0L68.86 0L68.86-39.23L90.56-39.23L90.56-35.97L75.39-35.97L75.39-21.70L89.22-21.70L89.22-18.30L75.39-18.30L75.39-3.26ZM120.45-14.21L126.34 0L119.30 0L113.79-13.63L113.79-13.63Q113.02-15.49 111.90-16.10L111.90-16.10L111.90-16.10Q110.78-16.70 108.48-16.70L108.48-16.70L105.47-16.70L105.47 0L98.94 0L98.94-39.23L112.06-39.23L112.06-39.23Q119.04-39.23 121.86-35.81L121.86-35.81L121.86-35.81Q124.67-32.38 124.67-27.52L124.67-27.52L124.67-27.52Q124.67-23.94 122.98-21.15L122.98-21.15L122.98-21.15Q121.28-18.37 117.12-17.28L117.12-17.28L117.12-17.28Q119.42-16.45 120.45-14.21L120.45-14.21ZM105.47-19.07L111.36-19.07L111.36-19.07Q114.82-19.07 116.48-21.54L116.48-21.54L116.48-21.54Q118.14-24 118.14-27.52L118.14-27.52L118.14-27.52Q118.14-31.42 116.48-34.11L116.48-34.11L116.48-34.11Q114.82-36.80 111.36-36.80L111.36-36.80L105.47-36.80L105.47-19.07ZM145.47-40L145.47-40Q151.49-40 154.75-37.15L154.75-37.15L154.75-37.15Q158.02-34.30 158.78-28.42L158.78-28.42L153.47-27.71L153.47-27.71Q153.15-32.32 151.07-34.82L151.07-34.82L151.07-34.82Q148.99-37.31 145.47-37.31L145.47-37.31L145.47-37.31Q141.70-37.31 139.68-35.49L139.68-35.49L139.68-35.49Q137.66-33.66 137.66-30.34L137.66-30.34L137.66-30.34Q137.66-27.26 139.30-25.70L139.30-25.70L139.30-25.70Q140.93-24.13 145.15-23.04L145.15-23.04L148.67-22.14L148.67-22.14Q154.37-20.54 156.74-17.92L156.74-17.92L156.74-17.92Q159.10-15.30 159.10-10.62L159.10-10.62L159.10-10.62Q159.10-5.12 155.52-2.18L155.52-2.18L155.52-2.18Q151.94 0.77 145.28 0.77L145.28 0.77L145.28 0.77Q138.94 0.77 135.58-2.08L135.58-2.08L135.58-2.08Q132.22-4.93 131.52-10.82L131.52-10.82L136.70-11.58L136.70-11.58Q137.22-6.98 139.39-4.48L139.39-4.48L139.39-4.48Q141.57-1.98 145.28-1.98L145.28-1.98L145.28-1.98Q153.60-1.98 153.60-9.02L153.60-9.02L153.60-9.02Q153.60-11.14 152.90-12.42L152.90-12.42L152.90-12.42Q152.19-13.70 150.56-14.56L150.56-14.56L150.56-14.56Q148.93-15.42 145.79-16.19L145.79-16.19L142.53-17.02L142.53-17.02Q136.83-18.50 134.56-21.15L134.56-21.15L134.56-21.15Q132.29-23.81 132.29-28.67L132.29-28.67L132.29-28.67Q132.29-34.24 135.65-37.12L135.65-37.12L135.65-37.12Q139.01-40 145.47-40L145.47-40ZM173.50-3.26L189.82-3.26L189.82 0L166.98 0L166.98-39.23L188.67-39.23L188.67-35.97L173.50-35.97L173.50-21.70L187.33-21.70L187.33-18.30L173.50-18.30L173.50-3.26Z"
                  fill="#ccc"></path>
        </g>
    </g>
    <style>text {
        font-size: 64px;
        font-family: Arial Black;
        dominant-baseline: central;
        text-anchor: middle;
        }
    </style>
</svg>